<svg overflow="visible" viewBox="0 0 24 32" xml:space="preserve" xmlns="http://www.w3.org/2000/svg"><path d="M12 0C5.373 0 0 5.373 0 12v20l3-3 3 3 3-3 3 3 3-3 3 3 3-3 3 3V12c0-6.627-5.373-12-12-12z" fill="#007bb8" class="fill-34b67a"></path><path d="M21.325 11.125A2.982 2.982 0 0 0 19 10a3 3 0 1 0 0 6c.943 0 1.775-.445 2.325-1.125C20.555 14.597 20 13.866 20 13s.554-1.597 1.325-1.875zM13.325 11.125A2.982 2.982 0 0 0 11 10a3 3 0 1 0 0 6c.943 0 1.775-.445 2.325-1.125C12.555 14.597 12 13.866 12 13s.554-1.597 1.325-1.875z" fill="#E6E6E6" class="fill-e6e6e6"></path><path d="M22 13c0-.713-.26-1.36-.675-1.875C20.554 11.403 20 12.134 20 13s.555 1.597 1.325 1.875A2.978 2.978 0 0 0 22 13zM14 13c0-.713-.26-1.36-.675-1.875C12.554 11.403 12 12.134 12 13s.555 1.597 1.325 1.875A2.978 2.978 0 0 0 14 13z" fill="#25374B" class="fill-25374b"></path></svg>